<svg xmlns="http://www.w3.org/2000/svg" width="720" height="720" viewBox="0 0 720 720" version="1.1"><path d="M 174 197.074 C 174 198.043, 255.416 543.094, 256.626 547.250 C 257.097 548.869, 259.491 549, 288.548 549 L 319.962 549 320.471 546.750 C 320.751 545.513, 329.311 499.500, 339.494 444.500 C 360.632 330.321, 358.935 338.813, 360.076 341.500 C 360.544 342.600, 369.299 388.725, 379.532 444 C 389.766 499.275, 398.381 545.513, 398.678 546.750 L 399.217 549 430.570 549 L 461.923 549 462.898 545.250 C 465.552 535.047, 545 198.262, 545 197.215 C 545 196.283, 536.270 196, 507.583 196 L 470.166 196 469.166 200.750 C 468.616 203.363, 459.040 252.637, 447.887 310.250 C 423.704 435.167, 429.951 435.560, 408.124 307.750 C 398.051 248.762, 389.578 199.488, 389.296 198.250 L 388.783 196 360.911 196 L 333.038 196 332.523 198.250 C 332.240 199.488, 323.428 248.200, 312.942 306.500 C 293.514 414.514, 293.302 415.635, 292.482 414.815 C 292.223 414.556, 282.555 366.229, 270.999 307.422 C 259.442 248.615, 249.756 199.488, 249.474 198.250 L 248.962 196 211.481 196 C 185.447 196, 174 196.328, 174 197.074" stroke="none" fill="#fa0404" fill-rule="evenodd"/><path d="M 333.500 39.591 C 331.850 39.815, 326.225 40.478, 321 41.062 C 81.762 67.841, -42.376 349.399, 98.214 546.366 C 266.005 781.441, 633.461 692.506, 678.166 406 C 709.238 206.862, 527.099 13.232, 333.500 39.591 M 174 197.074 C 174 198.043, 255.416 543.094, 256.626 547.250 C 257.097 548.869, 259.491 549, 288.548 549 L 319.962 549 320.471 546.750 C 320.751 545.513, 329.311 499.500, 339.494 444.500 C 360.632 330.321, 358.935 338.813, 360.076 341.500 C 360.544 342.600, 369.299 388.725, 379.532 444 C 389.766 499.275, 398.381 545.513, 398.678 546.750 L 399.217 549 430.570 549 L 461.923 549 462.898 545.250 C 465.552 535.047, 545 198.262, 545 197.215 C 545 196.283, 536.270 196, 507.583 196 L 470.166 196 469.166 200.750 C 468.616 203.363, 459.040 252.637, 447.887 310.250 C 423.704 435.167, 429.951 435.560, 408.124 307.750 C 398.051 248.762, 389.578 199.488, 389.296 198.250 L 388.783 196 360.911 196 L 333.038 196 332.523 198.250 C 332.240 199.488, 323.428 248.200, 312.942 306.500 C 293.514 414.514, 293.302 415.635, 292.482 414.815 C 292.223 414.556, 282.555 366.229, 270.999 307.422 C 259.442 248.615, 249.756 199.488, 249.474 198.250 L 248.962 196 211.481 196 C 185.447 196, 174 196.328, 174 197.074" stroke="none" fill="#040404" fill-rule="evenodd"/></svg>